<svg width="1420" height="168" viewBox="0 0 1420 168" fill="none" xmlns="http://www.w3.org/2000/svg">
<path d="M208.139 70.344C190.475 70.344 178.667 61.608 177.803 48.264H189.611C190.667 55.56 197.387 60.168 208.139 60.168C216.875 60.168 221.483 56.808 221.483 51.144C221.483 45.864 217.355 43.752 210.827 41.736L199.883 38.472C192.011 36.072 179.723 32.616 179.723 19.464C179.723 8.424 188.843 0.359997 203.723 0.359997C219.947 0.359997 230.315 9.096 231.179 23.304H219.467C218.987 15.72 213.419 10.632 203.339 10.632C195.947 10.632 191.147 13.704 191.147 18.888C191.147 24.744 197.003 26.184 203.531 28.296L213.707 31.464C223.211 34.44 233.195 37.896 233.195 50.568C233.195 62.76 223.499 70.344 208.139 70.344ZM276.135 70.344C255.495 70.344 242.343 56.232 242.343 35.208C242.343 14.856 255.207 0.359997 276.135 0.359997C293.607 0.359997 305.607 10.536 308.487 27.72H296.679C294.567 17.16 286.791 10.728 276.135 10.728C262.599 10.728 254.151 20.232 254.151 35.208C254.151 50.568 262.599 59.976 276.135 59.976C286.983 59.976 294.567 53.736 296.679 43.08H308.487C305.415 60.552 293.703 70.344 276.135 70.344ZM321.398 69V1.8H354.23C366.998 1.8 375.83 9.576 375.83 20.808C375.83 29.064 369.974 35.88 361.046 38.184C365.462 39.048 368.63 41.736 370.262 45.864L378.902 69H366.614L358.838 47.784C357.878 45.096 355.67 43.656 352.598 43.656H332.918V69H321.398ZM332.918 33.48H353.654C360.758 33.48 364.406 28.392 364.406 22.536C364.406 16.392 360.182 12.168 353.654 12.168H332.918V33.48ZM419.562 70.344C399.69 70.344 386.058 56.616 386.058 35.208C386.058 14.856 398.922 0.359997 419.562 0.359997C439.53 0.359997 453.258 14.088 453.258 35.208C453.258 55.752 440.298 70.344 419.562 70.344ZM397.77 35.208C397.77 50.376 406.218 59.976 419.562 59.976C433.002 59.976 441.546 50.376 441.546 35.208C441.546 20.232 433.002 10.728 419.562 10.728C406.218 10.728 397.77 20.232 397.77 35.208ZM466.05 69V1.8H477.57V58.632H511.842V69H466.05ZM523.939 69V1.8H535.459V58.632H569.731V69H523.939ZM588.751 69V40.296L563.311 1.8H576.655L594.607 29.352L612.559 1.8H625.903L600.271 40.296V69H588.751ZM654.019 69V12.168H631.555V1.8H687.907V12.168H665.539V69H654.019ZM699.574 69V1.8H746.614V12.168H710.998V29.448H743.254V39.528H710.998V58.632H747.478V69H699.574ZM760.182 69V1.8H771.702V58.632H805.974V69H760.182ZM818.07 69V1.8H829.59V58.632H863.862V69H818.07ZM875.959 69V1.8H887.479V69H875.959ZM903.285 69V1.8H915.765L949.077 52.392V1.8H960.597V69H948.117L914.805 18.408V69H903.285ZM1005.54 70.344C986.725 70.344 973.477 56.616 973.477 35.208C973.477 14.856 986.341 0.359997 1007.17 0.359997C1024.65 0.359997 1036.65 10.728 1039.53 27.72H1027.72C1025.61 17.16 1017.83 10.728 1007.17 10.728C993.733 10.728 985.285 20.136 985.285 35.208C985.285 50.472 993.829 59.976 1006.69 59.976C1017.16 59.976 1023.97 53.16 1023.97 43.56H1003.72V33.864H1026.66C1035.3 33.864 1040.01 38.184 1040.01 46.344V69H1029.83V48.456H1029.64C1028.29 61.896 1019.46 70.344 1005.54 70.344ZM1069.1 69.44C1062.22 69.44 1058.54 64.4 1058.54 58.28C1058.54 51.16 1063.22 47.32 1068.98 47.32C1074.3 47.32 1078.1 50.52 1078.7 55.96H1075.46C1074.9 52.44 1072.46 50.2 1068.9 50.2C1064.7 50.2 1061.9 53.28 1061.9 58.28C1061.9 63.68 1065.18 66.56 1069.14 66.56C1072.54 66.56 1074.86 64.4 1075.46 60.72H1078.7C1078.1 66.2 1074.58 69.44 1069.1 69.44ZM1093.18 69.44C1086.38 69.44 1082.78 64.6 1082.78 58.2C1082.78 51.12 1087.42 47.32 1093.18 47.32C1099.94 47.32 1103.58 52.2 1103.58 58.2C1103.58 65.52 1099.14 69.44 1093.18 69.44ZM1086.18 58.2C1086.18 63.64 1089.34 66.56 1093.18 66.56C1097.7 66.56 1100.18 62.8 1100.18 58.2C1100.18 53.44 1097.42 50.2 1093.18 50.2C1088.94 50.2 1086.18 53.44 1086.18 58.2ZM1108.72 69V47.8H1111.36L1111.68 51.08C1113.12 48.8 1115.88 47.32 1118.92 47.32C1122.12 47.32 1124.52 48.96 1125.6 51.52C1126.96 49.04 1129.88 47.32 1133.12 47.32C1137.6 47.32 1140.48 50.48 1140.48 54.8V69H1137.16V54.92C1137.16 52.08 1135.4 50.24 1132.56 50.24C1128.6 50.24 1126.28 52.88 1126.24 56.12V69H1122.96V54.92C1122.96 52.08 1121.2 50.24 1118.36 50.24C1114.4 50.24 1112.08 52.88 1112.04 56.12V69H1108.72ZM1157.35 69.44C1153.87 69.44 1151.03 67.72 1149.59 64.96L1149.23 69H1146.59V39H1149.91V51.12C1151.47 48.8 1154.15 47.32 1157.35 47.32C1162.95 47.32 1166.87 51.8 1166.87 58.28C1166.87 64.88 1162.95 69.44 1157.35 69.44ZM1149.91 58.12C1149.91 63.08 1152.79 66.56 1156.83 66.56C1160.75 66.56 1163.43 63.16 1163.43 58.28C1163.43 53.52 1160.75 50.2 1156.79 50.2C1152.79 50.2 1149.91 53.44 1149.91 58.12ZM1172.04 69V47.8H1175.36V69H1172.04ZM1171.24 41.76C1171.24 40.36 1172.32 39.32 1173.72 39.32C1175.12 39.32 1176.16 40.36 1176.16 41.76C1176.16 43.16 1175.12 44.24 1173.72 44.24C1172.32 44.24 1171.24 43.16 1171.24 41.76ZM1181.59 69V47.8H1184.23L1184.55 51.04C1185.99 48.8 1188.75 47.32 1191.91 47.32C1196.47 47.32 1199.51 50.28 1199.51 54.96V69H1196.19V55.08C1196.19 52.12 1194.27 50.24 1191.07 50.24C1187.27 50.24 1184.95 52.88 1184.91 56.12V69H1181.59ZM1214.88 69.44C1208.6 69.44 1204.44 64.84 1204.44 58.48C1204.44 51.24 1209.12 47.32 1214.48 47.32C1220.32 47.32 1224.08 51.24 1224.2 58.04V58.96H1207.76C1207.96 63.48 1210.6 66.56 1214.88 66.56C1217.84 66.56 1220 65.08 1220.88 62.32H1224.12C1223.16 66.68 1219.72 69.44 1214.88 69.44ZM1207.96 56.2H1220.72C1220.12 52.48 1217.88 50.2 1214.48 50.2C1211.12 50.2 1208.64 52.4 1207.96 56.2ZM1237.28 69.44C1232.24 69.44 1228.52 66.8 1228.24 62.32H1231.48C1231.72 65.08 1234.24 66.6 1237.44 66.6C1240.44 66.6 1241.88 65.44 1241.88 63.32C1241.88 61.32 1240.32 60.88 1238.12 60.12L1235.04 59.08C1231.92 58.04 1228.8 57.08 1228.8 53.24C1228.8 49.64 1231.6 47.32 1236.24 47.32C1240.92 47.32 1244.16 49.84 1244.68 54.56H1241.44C1241.08 51.6 1239 50.16 1236.12 50.16C1233.52 50.16 1232 51.32 1232 53.16C1232 55.36 1234.32 55.8 1236.08 56.4L1238.96 57.36C1242.84 58.64 1245.16 59.96 1245.16 63.48C1245.16 67.2 1242.44 69.44 1237.28 69.44ZM31.075 167.344C13.411 167.344 1.60296 158.608 0.738962 145.264H12.547C13.603 152.56 20.323 157.168 31.075 157.168C39.811 157.168 44.419 153.808 44.419 148.144C44.419 142.864 40.291 140.752 33.763 138.736L22.819 135.472C14.947 133.072 2.65896 129.616 2.65896 116.464C2.65896 105.424 11.779 97.36 26.659 97.36C42.883 97.36 53.251 106.096 54.115 120.304H42.403C41.923 112.72 36.355 107.632 26.275 107.632C18.883 107.632 14.083 110.704 14.083 115.888C14.083 121.744 19.939 123.184 26.467 125.296L36.643 128.464C46.147 131.44 56.131 134.896 56.131 147.568C56.131 159.76 46.435 167.344 31.075 167.344ZM84.2477 166V109.168H61.7837V98.8H118.136V109.168H95.7677V166H84.2477ZM157.047 167.344C137.175 167.344 123.543 153.616 123.543 132.208C123.543 111.856 136.407 97.36 157.047 97.36C177.015 97.36 190.743 111.088 190.743 132.208C190.743 152.752 177.783 167.344 157.047 167.344ZM135.255 132.208C135.255 147.376 143.703 156.976 157.047 156.976C170.487 156.976 179.031 147.376 179.031 132.208C179.031 117.232 170.487 107.728 157.047 107.728C143.703 107.728 135.255 117.232 135.255 132.208ZM203.535 166V98.8H236.367C249.135 98.8 257.967 106.576 257.967 117.808C257.967 126.064 252.111 132.88 243.183 135.184C247.599 136.048 250.767 138.736 252.399 142.864L261.039 166H248.751L240.975 144.784C240.015 142.096 237.807 140.656 234.735 140.656H215.055V166H203.535ZM215.055 130.48H235.791C242.895 130.48 246.543 125.392 246.543 119.536C246.543 113.392 242.319 109.168 235.791 109.168H215.055V130.48ZM288.128 166V137.296L262.688 98.8H276.032L293.984 126.352L311.936 98.8H325.28L299.648 137.296V166H288.128ZM353.396 166V109.168H330.932V98.8H387.284V109.168H364.916V166H353.396ZM398.951 166V98.8H445.991V109.168H410.375V126.448H442.631V136.528H410.375V155.632H446.855V166H398.951ZM459.559 166V98.8H471.079V155.632H505.351V166H459.559ZM517.448 166V98.8H528.968V155.632H563.24V166H517.448ZM575.336 166V98.8H586.856V166H575.336ZM602.663 166V98.8H615.143L648.455 149.392V98.8H659.975V166H647.495L614.183 115.408V166H602.663ZM704.918 167.344C686.102 167.344 672.854 153.616 672.854 132.208C672.854 111.856 685.718 97.36 706.55 97.36C724.022 97.36 736.022 107.728 738.902 124.72H727.094C724.982 114.16 717.206 107.728 706.55 107.728C693.11 107.728 684.662 117.136 684.662 132.208C684.662 147.472 693.206 156.976 706.07 156.976C716.534 156.976 723.35 150.16 723.35 140.56H703.094V130.864H726.038C734.678 130.864 739.382 135.184 739.382 143.344V166H729.206V145.456H729.014C727.67 158.896 718.838 167.344 704.918 167.344ZM763.359 166L757.079 144.8H760.479L765.359 161.88L770.079 144.8H772.959L777.679 161.8L782.519 144.8H785.919L779.639 166H775.999L771.519 149.84L767.039 166H763.359ZM790.229 166V144.8H793.549V166H790.229ZM789.429 138.76C789.429 137.36 790.509 136.32 791.909 136.32C793.309 136.32 794.349 137.36 794.349 138.76C794.349 140.16 793.309 141.24 791.909 141.24C790.509 141.24 789.429 140.16 789.429 138.76ZM808.459 166C804.339 166 802.139 163.88 802.139 159.96V147.6H798.219V144.8H802.139V137.56H805.459V144.8H811.179V147.6H805.459V159.96C805.459 162.08 806.499 163.2 808.459 163.2H810.819V166H808.459ZM816.011 166V136H819.331V147.52C820.851 145.6 823.451 144.32 826.331 144.32C830.891 144.32 833.931 147.28 833.931 151.96V166H830.611V152.08C830.611 149.12 828.691 147.24 825.691 147.24C821.691 147.24 819.371 149.88 819.331 153.12V166H816.011ZM881.462 167.344C863.798 167.344 851.99 158.608 851.126 145.264H862.934C863.99 152.56 870.71 157.168 881.462 157.168C890.198 157.168 894.806 153.808 894.806 148.144C894.806 142.864 890.678 140.752 884.15 138.736L873.206 135.472C865.334 133.072 853.046 129.616 853.046 116.464C853.046 105.424 862.166 97.36 877.046 97.36C893.27 97.36 903.638 106.096 904.502 120.304H892.79C892.31 112.72 886.742 107.632 876.662 107.632C869.27 107.632 864.47 110.704 864.47 115.888C864.47 121.744 870.326 123.184 876.854 125.296L887.03 128.464C896.534 131.44 906.518 134.896 906.518 147.568C906.518 159.76 896.822 167.344 881.462 167.344ZM949.458 167.344C928.818 167.344 915.666 153.232 915.666 132.208C915.666 111.856 928.53 97.36 949.458 97.36C966.93 97.36 978.93 107.536 981.81 124.72H970.002C967.89 114.16 960.114 107.728 949.458 107.728C935.922 107.728 927.474 117.232 927.474 132.208C927.474 147.568 935.922 156.976 949.458 156.976C960.306 156.976 967.89 150.736 970.002 140.08H981.81C978.738 157.552 967.026 167.344 949.458 167.344ZM994.721 166V98.8H1027.55C1040.32 98.8 1049.15 106.576 1049.15 117.808C1049.15 126.064 1043.3 132.88 1034.37 135.184C1038.78 136.048 1041.95 138.736 1043.58 142.864L1052.22 166H1039.94L1032.16 144.784C1031.2 142.096 1028.99 140.656 1025.92 140.656H1006.24V166H994.721ZM1006.24 130.48H1026.98C1034.08 130.48 1037.73 125.392 1037.73 119.536C1037.73 113.392 1033.5 109.168 1026.98 109.168H1006.24V130.48ZM1092.89 167.344C1073.01 167.344 1059.38 153.616 1059.38 132.208C1059.38 111.856 1072.25 97.36 1092.89 97.36C1112.85 97.36 1126.58 111.088 1126.58 132.208C1126.58 152.752 1113.62 167.344 1092.89 167.344ZM1071.09 132.208C1071.09 147.376 1079.54 156.976 1092.89 156.976C1106.33 156.976 1114.87 147.376 1114.87 132.208C1114.87 117.232 1106.33 107.728 1092.89 107.728C1079.54 107.728 1071.09 117.232 1071.09 132.208ZM1139.37 166V98.8H1150.89V155.632H1185.17V166H1139.37ZM1197.26 166V98.8H1208.78V155.632H1243.05V166H1197.26ZM1255.15 166V98.8H1266.67V166H1255.15ZM1282.48 166V98.8H1294.96L1328.27 149.392V98.8H1339.79V166H1327.31L1294 115.408V166H1282.48ZM1384.73 167.344C1365.92 167.344 1352.67 153.616 1352.67 132.208C1352.67 111.856 1365.53 97.36 1386.36 97.36C1403.84 97.36 1415.84 107.728 1418.72 124.72H1406.91C1404.8 114.16 1397.02 107.728 1386.36 107.728C1372.92 107.728 1364.48 117.136 1364.48 132.208C1364.48 147.472 1373.02 156.976 1385.88 156.976C1396.35 156.976 1403.16 150.16 1403.16 140.56H1382.91V130.864H1405.85C1414.49 130.864 1419.2 135.184 1419.2 143.344V166H1409.02V145.456H1408.83C1407.48 158.896 1398.65 167.344 1384.73 167.344Z" fill="#EC5E3C" style="fill:#EC5E3C;fill:color(display-p3 0.9255 0.3686 0.2353);fill-opacity:1;"/>
</svg>
