<svg width="45" height="45" viewBox="0 0 45 45" fill="none" xmlns="http://www.w3.org/2000/svg">
<path fill-rule="evenodd" clip-rule="evenodd" d="M22.5 0C19.0325 0 16.3349 3.01399 16.7178 6.46024L17.0337 9.30352V9.30352C17.1126 10.0136 16.2232 10.3471 15.5613 10.0782C14.0521 9.46507 12.2436 9.7564 11 11C9.75637 12.2437 9.46504 14.0521 10.0782 15.5613C10.3471 16.2232 10.0136 17.1126 9.30352 17.0337V17.0337L6.46025 16.7178C3.01399 16.3349 0 19.0325 0 22.5C0 25.9675 3.01399 28.6651 6.46024 28.2822L9.30353 27.9663V27.9663C10.0136 27.8874 10.3471 28.7768 10.0782 29.4387C9.46503 30.9479 9.75636 32.7564 11 34C12.2436 35.2436 14.0521 35.535 15.5613 34.9219C16.2232 34.653 17.1126 34.9864 17.0337 35.6965V35.6965L16.7178 38.5398C16.3349 41.986 19.0325 45 22.5 45C25.9675 45 28.6651 41.986 28.2822 38.5398L27.9663 35.6965V35.6965C27.8874 34.9864 28.7768 34.6529 29.4387 34.9218C30.9479 35.535 32.7564 35.2437 34 34C35.2436 32.7564 35.535 30.9479 34.9218 29.4387C34.6529 28.7768 34.9864 27.8874 35.6965 27.9663V27.9663L38.5398 28.2822C41.986 28.6651 45 25.9675 45 22.5C45 19.0325 41.986 16.3349 38.5398 16.7178L35.6965 17.0337V17.0337C34.9864 17.1126 34.6529 16.2232 34.9218 15.5613C35.535 14.0521 35.2436 12.2437 34 11C32.7564 9.75641 30.9479 9.46508 29.4387 10.0782C28.7768 10.3471 27.8874 10.0136 27.9663 9.30352V9.30352L28.2822 6.46024C28.6651 3.01399 25.9675 0 22.5 0Z" fill="#FF502C" style="fill:#FF502C;fill:color(display-p3 1.0000 0.3137 0.1725);fill-opacity:1;"/>
</svg>
